<?xml version="1.0" encoding="utf-8"?>
<!-- Generator: Adobe Illustrator 26.5.0, SVG Export Plug-In . SVG Version: 6.00 Build 0)  -->
<svg version="1.1" id="Warstwa_1" xmlns="http://www.w3.org/2000/svg" xmlns:xlink="http://www.w3.org/1999/xlink" x="0px" y="0px"
	 viewBox="0 0 16 16" style="enable-background:new 0 0 16 16;" xml:space="preserve">
<style type="text/css">
	.st0{fill:#FFFFFF;}
	.st1{fill:#182A42;}
	.st2{fill:#FFFFFF;stroke:#FFFFFF;stroke-miterlimit:10;}
	.st3{fill:#FFFFFF;stroke:#FFFFFF;stroke-width:15;stroke-miterlimit:10;}
	.st4{fill:#252F48;}
	.st5{fill:#ABC0E4;}
	.st6{fill:none;stroke:#222221;stroke-width:4.6215;stroke-miterlimit:10;}
	.st7{fill:none;stroke:#222221;stroke-width:5.7894;stroke-miterlimit:10;}
	.st8{fill:none;stroke:#222221;stroke-width:5.6693;stroke-miterlimit:10;}
	.st9{fill:none;stroke:#447FBE;stroke-width:5.6693;stroke-miterlimit:10;}
	.st10{fill:none;stroke:#222221;stroke-width:4;stroke-miterlimit:10;}
	.st11{fill:#006A42;stroke:#222221;stroke-width:4;stroke-miterlimit:10;}
	.st12{fill:#706F6F;stroke:#000000;stroke-width:4;stroke-linecap:round;stroke-linejoin:round;stroke-miterlimit:10;}
	.st13{fill:#FDF4AD;stroke:#222221;stroke-width:3.4016;stroke-miterlimit:10;}
	.st14{fill:#C7421A;stroke:#222221;stroke-width:3.4016;stroke-miterlimit:10;}
	.st15{fill:none;stroke:#222221;stroke-width:3.4016;stroke-miterlimit:10;}
	.st16{stroke:#000000;stroke-width:4;stroke-linecap:round;stroke-linejoin:round;stroke-miterlimit:10;}
	.st17{fill:#FFFFFF;stroke:#222221;stroke-width:3.4016;stroke-miterlimit:10;}
	.st18{fill:#FCE3DB;stroke:#222221;stroke-width:3.4016;stroke-miterlimit:10;}
	.st19{fill:none;stroke:#222221;stroke-width:4;stroke-linecap:round;stroke-linejoin:round;stroke-miterlimit:10;}
	.st20{fill:none;stroke:#222221;stroke-width:3.2081;stroke-miterlimit:10;}
	.st21{fill:#222221;stroke:#222221;stroke-width:1.4173;stroke-miterlimit:10;}
	.st22{fill:none;stroke:#222221;stroke-width:5.462;stroke-linecap:round;stroke-linejoin:round;stroke-miterlimit:10;}
	.st23{fill:#222221;}
	.st24{fill:none;stroke:#222221;stroke-width:3;stroke-miterlimit:10;}
	.st25{fill:#222221;stroke:#222221;stroke-width:1.8006;stroke-miterlimit:10;}
	.st26{fill:#222221;stroke:#222221;stroke-width:2;stroke-miterlimit:10;}
	.st27{fill:none;stroke:#ABC0E4;stroke-width:8;stroke-miterlimit:10;}
	.st28{fill:none;stroke:#ABC0E4;stroke-width:8.7432;stroke-miterlimit:10;}
	.st29{fill:#FFFFFF;stroke:#FFFFFF;stroke-width:0.2567;stroke-miterlimit:10;}
	.st30{fill:#FFFFFF;stroke:#FFFFFF;stroke-width:0.2056;stroke-miterlimit:10;}
	.st31{fill:#FFFFFF;stroke:#FFFFFF;stroke-width:0.2137;stroke-miterlimit:10;}
	.st32{fill:#FFFFFF;stroke:#FFFFFF;stroke-width:3.1052;stroke-miterlimit:10;}
	.st33{fill:#FFFFFF;stroke:#FFFFFF;stroke-width:1.0351;stroke-miterlimit:10;}
	.st34{fill:#FFFFFF;stroke:#FFFFFF;stroke-width:0.0847;stroke-miterlimit:10;}
	.st35{fill:none;stroke:#FFFFFF;stroke-width:0.5021;stroke-miterlimit:10;}
	.st36{fill:none;stroke:#FFFFFF;stroke-width:0.5905;stroke-linecap:round;stroke-linejoin:round;stroke-miterlimit:10;}
	.st37{fill:none;stroke:#FFFFFF;stroke-width:0.4736;stroke-miterlimit:10;}
	.st38{fill:#222221;stroke:#FFFFFF;stroke-width:0.2092;stroke-miterlimit:10;}
	.st39{fill:#FFFFFF;stroke:#FFFFFF;stroke-width:0.1696;stroke-miterlimit:10;}
	.st40{fill:#FFFFFF;stroke:#FFFFFF;stroke-width:0.1763;stroke-miterlimit:10;}
	.st41{fill:none;stroke:#FFFFFF;stroke-width:0.25;stroke-miterlimit:10;}
	.st42{fill:none;stroke:#FFFFFF;stroke-width:0.25;stroke-linecap:round;stroke-linejoin:round;stroke-miterlimit:10;}
	.st43{fill:none;stroke:#FFFFFF;stroke-width:0.568;stroke-miterlimit:10;}
	.st44{fill:none;stroke:#FFFFFF;stroke-width:0.7115;stroke-miterlimit:10;}
	.st45{fill:none;stroke:#FFFFFF;stroke-width:0.5;stroke-miterlimit:10;}
	.st46{fill:#FFFFFF;stroke:#FFFFFF;stroke-width:2.8346;stroke-miterlimit:10;}
	.st47{fill:#FFFFFF;stroke:#FFFFFF;stroke-width:0.5609;stroke-miterlimit:10;}
</style>
<rect class="st1" width="16" height="16"/>
<g>
	<g>
		<path class="st34" d="M4.48,6.2C4.32,6.02,4.23,5.72,4.23,5.3c0-0.33,0.06-0.69,0.17-1.07c0.11-0.38,0.29-0.71,0.54-0.98
			C5.19,2.98,5.5,2.84,5.89,2.84c0.24,0,0.43,0.05,0.57,0.16s0.22,0.26,0.22,0.48c0,0.14-0.03,0.24-0.08,0.32
			C6.54,3.87,6.46,3.91,6.35,3.91s-0.2-0.04-0.27-0.12C6.13,3.76,6.18,3.7,6.23,3.62c0.04-0.09,0.07-0.17,0.07-0.27
			c0-0.09-0.02-0.15-0.07-0.21C6.18,3.09,6.11,3.06,6,3.06c-0.17,0-0.33,0.11-0.48,0.34C5.37,3.64,5.25,3.92,5.16,4.27
			c-0.09,0.35-0.14,0.68-0.14,1c0,0.24,0.04,0.42,0.12,0.55c0.08,0.13,0.23,0.19,0.45,0.19c0.19,0,0.36-0.04,0.52-0.12
			c0.16-0.08,0.29-0.2,0.41-0.35l0.11,0.05c-0.08,0.2-0.2,0.36-0.35,0.5c-0.15,0.13-0.32,0.23-0.5,0.29
			C5.6,6.44,5.43,6.47,5.27,6.47C4.91,6.47,4.65,6.38,4.48,6.2z"/>
		<path class="st34" d="M6.62,6.24C6.5,6.12,6.44,5.92,6.44,5.66c0-0.23,0.05-0.48,0.14-0.74c0.09-0.26,0.23-0.48,0.42-0.65
			C7.18,4.09,7.4,4,7.65,4c0.13,0,0.23,0.02,0.29,0.07c0.06,0.04,0.09,0.1,0.09,0.18v0.03l0.05-0.25h0.68L8.43,5.64
			c-0.01,0.05-0.02,0.1-0.02,0.15c0,0.14,0.06,0.2,0.19,0.2c0.09,0,0.17-0.04,0.23-0.12C8.9,5.79,8.95,5.68,8.99,5.55h0.2
			C9.07,5.89,8.93,6.12,8.76,6.24C8.58,6.36,8.41,6.42,8.24,6.42C8.1,6.42,8,6.39,7.92,6.31C7.84,6.24,7.79,6.13,7.77,5.99
			C7.68,6.12,7.58,6.22,7.47,6.3c-0.11,0.08-0.25,0.12-0.4,0.12C6.89,6.42,6.74,6.36,6.62,6.24z M7.61,5.85
			c0.08-0.07,0.13-0.18,0.16-0.31L8,4.47c0-0.04-0.02-0.08-0.05-0.12C7.92,4.31,7.87,4.29,7.8,4.29c-0.13,0-0.24,0.07-0.34,0.22
			c-0.1,0.15-0.18,0.32-0.24,0.53C7.17,5.25,7.14,5.44,7.14,5.59c0,0.16,0.02,0.26,0.07,0.3c0.05,0.04,0.1,0.07,0.17,0.07
			C7.45,5.96,7.53,5.93,7.61,5.85z"/>
		<path class="st34" d="M9.09,6.28C9,6.19,8.95,6.04,8.95,5.85c0-0.08,0.01-0.18,0.04-0.31L9.5,3.17l0.7-0.09L9.65,5.64
			c-0.01,0.05-0.02,0.1-0.02,0.15c0,0.06,0.01,0.11,0.05,0.14c0.03,0.03,0.08,0.04,0.15,0.04c0.09,0,0.18-0.04,0.26-0.12
			c0.08-0.08,0.14-0.18,0.17-0.3h0.2c-0.12,0.34-0.27,0.57-0.45,0.69C9.82,6.36,9.64,6.42,9.46,6.42C9.31,6.42,9.19,6.38,9.09,6.28z
			"/>
		<path class="st34" d="M10.35,6.28c-0.09-0.1-0.14-0.24-0.14-0.43c0-0.08,0.01-0.18,0.04-0.31l0.51-2.37l0.7-0.09l-0.55,2.56
			c-0.01,0.05-0.02,0.09-0.02,0.14c0,0.13,0.06,0.19,0.19,0.19c0.06,0,0.11-0.01,0.15-0.03c-0.01,0.16-0.07,0.28-0.17,0.37
			c-0.1,0.09-0.22,0.13-0.35,0.13C10.56,6.42,10.44,6.37,10.35,6.28z"/>
	</g>
	<g>
		<path class="st34" d="M3.18,12.85c-0.14-0.08-0.31-0.2-0.52-0.37c-0.16-0.13-0.29-0.23-0.41-0.31c-0.11-0.08-0.23-0.14-0.37-0.2
			c-0.13-0.05-0.26-0.08-0.4-0.08c-0.05,0-0.08,0-0.11,0l0.71-3.28C1.87,8.7,1.71,8.83,1.59,9C1.48,9.18,1.42,9.39,1.42,9.65
			c0,0.12,0.01,0.2,0.03,0.24c0.02,0.05,0.03,0.07,0.03,0.08c-0.17,0-0.3-0.04-0.38-0.11C1.02,9.79,0.98,9.67,0.98,9.51
			c0-0.2,0.08-0.4,0.25-0.59s0.38-0.35,0.64-0.46c0.26-0.12,0.52-0.18,0.78-0.18c0.04,0,0.11,0,0.19,0.01l-0.73,3.4
			c0.09,0.02,0.18,0.05,0.27,0.1c0.09,0.04,0.21,0.1,0.34,0.17c0.21,0.11,0.38,0.2,0.53,0.25c0.15,0.06,0.3,0.09,0.46,0.09
			c0.14,0,0.27-0.03,0.4-0.08c-0.03,0.23-0.08,0.41-0.17,0.55c-0.09,0.13-0.2,0.2-0.32,0.2C3.46,12.97,3.32,12.93,3.18,12.85z"/>
		<path class="st34" d="M2.88,11.62c-0.14-0.12-0.2-0.31-0.2-0.57c0-0.21,0.04-0.45,0.13-0.72c0.09-0.26,0.23-0.49,0.43-0.68
			c0.2-0.19,0.44-0.29,0.74-0.29c0.4,0,0.61,0.25,0.61,0.76v0c0.01,0,0.03,0,0.05,0c0.1,0,0.22-0.03,0.36-0.08
			C5.13,10,5.26,9.93,5.37,9.85l0.04,0.13c-0.09,0.1-0.21,0.18-0.36,0.25c-0.15,0.07-0.31,0.12-0.48,0.14
			c-0.03,0.29-0.09,0.54-0.19,0.75s-0.24,0.38-0.4,0.5c-0.16,0.12-0.34,0.18-0.54,0.18C3.2,11.8,3.02,11.74,2.88,11.62z M3.86,11.25
			c0.08-0.09,0.14-0.21,0.2-0.36c0.06-0.15,0.1-0.32,0.12-0.5c-0.09-0.02-0.13-0.09-0.13-0.2c0-0.13,0.05-0.21,0.15-0.26
			c-0.01-0.1-0.02-0.18-0.05-0.22C4.12,9.68,4.08,9.66,4.02,9.66c-0.1,0-0.21,0.08-0.3,0.23c-0.1,0.15-0.18,0.33-0.24,0.55
			c-0.06,0.21-0.09,0.4-0.09,0.56c0,0.15,0.02,0.25,0.05,0.31c0.03,0.05,0.1,0.08,0.19,0.08C3.7,11.38,3.78,11.33,3.86,11.25z"/>
		<path class="st34" d="M5.15,9.41h0.68L5.77,9.71c0.11-0.09,0.2-0.17,0.29-0.22c0.09-0.05,0.18-0.08,0.28-0.08
			c0.1,0,0.18,0.03,0.24,0.1c0.06,0.07,0.09,0.15,0.09,0.25c0,0.09-0.03,0.17-0.09,0.24c-0.06,0.07-0.14,0.1-0.25,0.1
			c-0.07,0-0.12-0.02-0.14-0.05c-0.02-0.03-0.04-0.08-0.05-0.14C6.13,9.88,6.12,9.85,6.11,9.83C6.1,9.81,6.08,9.8,6.05,9.8
			c-0.07,0-0.12,0.01-0.17,0.04C5.84,9.87,5.78,9.92,5.71,9.98l-0.38,1.8H4.65L5.15,9.41z"/>
		<path class="st34" d="M6.74,11.63c-0.13-0.12-0.19-0.31-0.19-0.57c0-0.22,0.04-0.46,0.13-0.72c0.09-0.26,0.22-0.49,0.42-0.68
			s0.44-0.29,0.73-0.29c0.35,0,0.52,0.15,0.52,0.46c0,0.18-0.05,0.34-0.15,0.49c-0.1,0.15-0.24,0.27-0.4,0.36
			c-0.17,0.09-0.35,0.14-0.54,0.15c-0.01,0.09-0.01,0.16-0.01,0.19c0,0.15,0.03,0.26,0.08,0.32c0.05,0.06,0.14,0.08,0.26,0.08
			c0.17,0,0.32-0.04,0.44-0.12c0.12-0.08,0.26-0.2,0.4-0.36h0.16c-0.35,0.58-0.79,0.88-1.3,0.88C7.05,11.81,6.87,11.75,6.74,11.63z
			 M7.63,10.48c0.11-0.08,0.19-0.17,0.26-0.29c0.06-0.12,0.1-0.24,0.1-0.37c0-0.13-0.04-0.19-0.12-0.19c-0.11,0-0.23,0.1-0.33,0.3
			c-0.11,0.2-0.19,0.43-0.23,0.68C7.41,10.59,7.52,10.55,7.63,10.48z"/>
		<path class="st34" d="M9.69,11.66c-0.08-0.1-0.11-0.23-0.11-0.38c0-0.07,0.01-0.14,0.02-0.23c0.02-0.08,0.03-0.17,0.05-0.24
			c0.02-0.08,0.03-0.13,0.04-0.15c0.03-0.11,0.05-0.22,0.07-0.33c0.02-0.11,0.03-0.19,0.03-0.26c0-0.16-0.06-0.24-0.17-0.24
			c-0.08,0-0.15,0.04-0.22,0.12c-0.06,0.08-0.11,0.19-0.15,0.32l-0.32,1.52H8.25l0.5-2.37h0.68L9.38,9.66
			C9.54,9.48,9.72,9.4,9.94,9.4c0.16,0,0.29,0.04,0.38,0.13c0.09,0.09,0.14,0.22,0.14,0.4c0,0.09-0.01,0.19-0.03,0.31
			c-0.02,0.11-0.05,0.25-0.09,0.41c-0.03,0.1-0.05,0.19-0.07,0.29s-0.03,0.17-0.03,0.22c0,0.06,0.01,0.11,0.04,0.15
			c0.03,0.03,0.08,0.05,0.15,0.05c0.08,0,0.13-0.01,0.16-0.03c-0.02,0.16-0.08,0.28-0.17,0.37c-0.1,0.08-0.21,0.12-0.35,0.12
			C9.89,11.81,9.77,11.76,9.69,11.66z M11.79,9.67h-0.27c-0.09,0-0.15,0-0.2,0.01c-0.04,0.01-0.06,0.03-0.06,0.06
			c0,0.01,0.01,0.01,0.03,0.02c0.02,0.01,0.03,0.04,0.03,0.08c0,0.08-0.03,0.14-0.08,0.19c-0.05,0.04-0.11,0.06-0.18,0.06
			c-0.06,0-0.11-0.02-0.15-0.05c-0.04-0.04-0.06-0.09-0.06-0.15c0-0.07,0.02-0.14,0.07-0.21c0.05-0.08,0.11-0.14,0.19-0.19
			c0.08-0.05,0.18-0.08,0.29-0.08h1.22l-1.16,2.01c0.02,0,0.05,0,0.1,0.01c0.11,0.01,0.19,0.02,0.26,0.02
			c0.14,0,0.21-0.03,0.22-0.09c-0.03,0-0.05-0.01-0.07-0.03c-0.02-0.02-0.02-0.04-0.02-0.07c0-0.05,0.02-0.1,0.07-0.14
			c0.05-0.04,0.11-0.06,0.19-0.06c0.07,0,0.12,0.02,0.16,0.06c0.03,0.04,0.05,0.1,0.05,0.17c0,0.08-0.02,0.15-0.07,0.23
			c-0.05,0.08-0.12,0.14-0.2,0.2c-0.09,0.05-0.19,0.08-0.3,0.08h-1.26L11.79,9.67z"/>
		<path class="st34" d="M12.75,11.62c-0.14-0.12-0.2-0.31-0.2-0.57c0-0.22,0.04-0.46,0.13-0.72c0.09-0.26,0.22-0.49,0.42-0.68
			c0.19-0.19,0.44-0.29,0.74-0.29c0.37,0,0.57,0.21,0.6,0.64C14.5,10,14.56,9.96,14.62,9.9c0.05-0.06,0.1-0.13,0.15-0.21h0.15
			c-0.09,0.17-0.16,0.3-0.23,0.4s-0.15,0.17-0.26,0.23c-0.02,0.3-0.08,0.56-0.18,0.78c-0.1,0.22-0.24,0.4-0.4,0.52
			c-0.16,0.12-0.35,0.18-0.55,0.18C13.07,11.8,12.88,11.74,12.75,11.62z M13.82,11.09c0.1-0.19,0.17-0.42,0.21-0.7
			c-0.08-0.03-0.11-0.1-0.11-0.21c0-0.12,0.04-0.21,0.13-0.25c-0.01-0.1-0.02-0.17-0.05-0.21c-0.03-0.04-0.07-0.06-0.13-0.06
			c-0.1,0-0.2,0.08-0.3,0.23c-0.09,0.15-0.17,0.33-0.23,0.54c-0.06,0.21-0.09,0.4-0.09,0.56c0,0.15,0.02,0.25,0.05,0.31
			c0.03,0.05,0.1,0.08,0.19,0.08C13.61,11.38,13.72,11.28,13.82,11.09z"/>
	</g>
</g>
</svg>
