<?xml version="1.0" encoding="utf-8"?>
<!-- Generator: Adobe Illustrator 25.3.1, SVG Export Plug-In . SVG Version: 6.00 Build 0)  -->
<svg version="1.1" id="Warstwa_1" xmlns="http://www.w3.org/2000/svg" xmlns:xlink="http://www.w3.org/1999/xlink" x="0px" y="0px"
	 viewBox="0 0 877.28 920.07" style="enable-background:new 0 0 877.28 920.07;" xml:space="preserve">
<style type="text/css">
	.st0{fill:#FFFFFF;}
	.st1{fill:#172A42;}
	.st2{fill:#FFFFFF;stroke:#FFFFFF;stroke-miterlimit:10;}
	.st3{fill:#FFFFFF;stroke:#FFFFFF;stroke-width:0.7022;stroke-miterlimit:10;}
	.st4{fill:#FFFFFF;stroke:#FFFFFF;stroke-width:15;stroke-miterlimit:10;}
	.st5{fill:#222221;stroke:#222221;stroke-width:4.3264;stroke-miterlimit:10;}
	.st6{fill:none;stroke:#222221;stroke-width:5.6693;stroke-miterlimit:10;}
	.st7{fill:none;stroke:#222221;stroke-width:4.6215;stroke-miterlimit:10;}
	.st8{fill:#FFFFFF;stroke:#222221;stroke-width:5.7894;stroke-miterlimit:10;}
	.st9{fill:none;stroke:#457EBC;stroke-width:5.6693;stroke-miterlimit:10;}
	.st10{fill:none;stroke:#222221;stroke-width:5.462;stroke-linecap:round;stroke-linejoin:round;stroke-miterlimit:10;}
	.st11{fill:#ABC0E4;}
	.st12{fill:#5E7DB5;}
	.st13{fill:#627D9E;}
	.st14{fill:#465A70;}
	.st15{fill:none;stroke:#222221;stroke-width:4;stroke-miterlimit:10;}
	.st16{fill:#222221;}
	.st17{fill:none;stroke:#222221;stroke-width:3.4016;stroke-miterlimit:10;}
	.st18{fill:none;stroke:#222221;stroke-width:3.4016;stroke-linecap:round;stroke-linejoin:round;stroke-miterlimit:10;}
	.st19{fill:#222221;stroke:#222221;stroke-width:3.4016;stroke-linecap:round;stroke-linejoin:round;stroke-miterlimit:10;}
	.st20{fill:#222221;stroke:#222221;stroke-width:3.4016;stroke-miterlimit:10;}
	.st21{fill:none;stroke:#222221;stroke-width:3.2081;stroke-miterlimit:10;}
	.st22{fill:#222221;stroke:#222221;stroke-width:1.4173;stroke-miterlimit:10;}
	.st23{fill:none;stroke:#222221;stroke-width:4;stroke-linecap:round;stroke-linejoin:round;stroke-miterlimit:10;}
	.st24{fill:none;stroke:#222221;stroke-width:3;stroke-miterlimit:10;}
	.st25{fill:none;}
	.st26{font-family:'Futura-CondensedExtraBold';}
	.st27{font-size:36.6245px;}
	.st28{fill:#242E47;}
</style>
<g>
	<rect x="492.57" y="368.89" class="st25" width="59.21" height="68.63"/>
	<text transform="matrix(1 0 0 1 501.0021 399.0996)" class="st16 st26 st27">1h</text>
	<path class="st15" d="M461.55,446.14h-48.72c-5.85,0-10.59-4.74-10.59-10.59V327.47c0-5.85,4.74-10.59,10.59-10.59h48.72
		c5.85,0,10.59,4.74,10.59,10.59v108.08C472.15,441.4,467.41,446.14,461.55,446.14z"/>
	<circle class="st16" cx="437.48" cy="437.41" r="3.64"/>
	<path class="st16" d="M449.18,386.71c-2.6,0-4.29,0.06-5,2.04c-0.14,0.4-1.8,0.51-2.15,0.27c-2.37-1.54-1.91-0.87-4.55-3.12
		c-2.86-2.44-5.14-4.5-6.93-6.54c-0.27-0.31-2.33-4.77-1.95-4.93c1.99-0.87,0.84-3.52,0.84-6.15c0-3,0.15-3.51-2.86-3.51
		c-3.01,0-5.33,1.34-5.33,4.35c0,1.02,0,3.15,0.82,7.79c0.79,3.13,1.66,5.79,8.05,11.24c5.78,4.94,10.84,7.36,14.17,7.14
		c4.08-0.27,5.11-0.55,5.69-0.75c3.41-1.2,3.75-1.78,3.75-4.78C453.71,386.74,452.18,386.71,449.18,386.71z"/>
	<line class="st15" x1="402.16" y1="428.03" x2="472.79" y2="428.03"/>
	<line class="st15" x1="402.16" y1="328.01" x2="472.79" y2="328.01"/>
	<path class="st24" d="M441.37,350.31c1.1-0.1,7.3-0.55,12.63,4.03c5.55,4.77,5.88,11.3,5.91,12.36"/>
	<path class="st24" d="M437.19,363.89c0.65-0.06,4.34-0.33,7.51,2.4c3.3,2.84,3.49,6.72,3.52,7.35"/>
	<path class="st24" d="M439.16,356.56c0.93-0.08,6.17-0.47,10.67,3.41c4.69,4.03,4.97,9.55,5,10.45"/>
</g>
</svg>
