<?xml version="1.0" encoding="utf-8"?>
<!-- Generator: Adobe Illustrator 26.5.0, SVG Export Plug-In . SVG Version: 6.00 Build 0)  -->
<svg version="1.1" id="Warstwa_1" xmlns="http://www.w3.org/2000/svg" xmlns:xlink="http://www.w3.org/1999/xlink" x="0px" y="0px"
	 viewBox="0 0 144.25 135.21" style="enable-background:new 0 0 144.25 135.21;" xml:space="preserve">
<style type="text/css">
	.st0{fill:#FFFFFF;}
	.st1{fill:#182A42;}
	.st2{fill:#FFFFFF;stroke:#FFFFFF;stroke-miterlimit:10;}
	.st3{fill:#FFFFFF;stroke:#FFFFFF;stroke-width:15;stroke-miterlimit:10;}
	.st4{fill:#252F48;}
	.st5{fill:#ABC0E4;}
	.st6{fill:none;stroke:#222221;stroke-width:4.6215;stroke-miterlimit:10;}
	.st7{fill:none;stroke:#222221;stroke-width:5.7894;stroke-miterlimit:10;}
	.st8{fill:none;stroke:#222221;stroke-width:5.6693;stroke-miterlimit:10;}
	.st9{fill:none;stroke:#447FBE;stroke-width:5.6693;stroke-miterlimit:10;}
	.st10{fill:none;stroke:#222221;stroke-width:4;stroke-miterlimit:10;}
	.st11{fill:#006A42;stroke:#222221;stroke-width:4;stroke-miterlimit:10;}
	.st12{fill:#706F6F;stroke:#000000;stroke-width:4;stroke-linecap:round;stroke-linejoin:round;stroke-miterlimit:10;}
	.st13{fill:#FDF4AD;stroke:#222221;stroke-width:3.4016;stroke-miterlimit:10;}
	.st14{fill:#C7421A;stroke:#222221;stroke-width:3.4016;stroke-miterlimit:10;}
	.st15{fill:none;stroke:#222221;stroke-width:3.4016;stroke-miterlimit:10;}
	.st16{stroke:#000000;stroke-width:4;stroke-linecap:round;stroke-linejoin:round;stroke-miterlimit:10;}
	.st17{fill:#FFFFFF;stroke:#222221;stroke-width:3.4016;stroke-miterlimit:10;}
	.st18{fill:#FCE3DB;stroke:#222221;stroke-width:3.4016;stroke-miterlimit:10;}
	.st19{fill:none;stroke:#222221;stroke-width:4;stroke-linecap:round;stroke-linejoin:round;stroke-miterlimit:10;}
	.st20{fill:none;stroke:#222221;stroke-width:3.2081;stroke-miterlimit:10;}
	.st21{fill:#222221;stroke:#222221;stroke-width:1.4173;stroke-miterlimit:10;}
	.st22{fill:none;stroke:#222221;stroke-width:5.462;stroke-linecap:round;stroke-linejoin:round;stroke-miterlimit:10;}
	.st23{fill:#222221;}
	.st24{fill:none;stroke:#222221;stroke-width:3;stroke-miterlimit:10;}
	.st25{fill:#222221;stroke:#222221;stroke-width:1.8006;stroke-miterlimit:10;}
	.st26{fill:#222221;stroke:#222221;stroke-width:2;stroke-miterlimit:10;}
	.st27{fill:none;stroke:#ABC0E4;stroke-width:8;stroke-miterlimit:10;}
	.st28{fill:none;stroke:#ABC0E4;stroke-width:8.7432;stroke-miterlimit:10;}
</style>
<g>
	<path class="st23" d="M104.95,86.03H97.5V64.91h-2.99v-6.49h10.44V86.03z"/>
	<path class="st23" d="M129.69,86.03h-7.17V75.8c0-0.88-0.09-1.5-0.26-1.84s-0.47-0.52-0.9-0.52c-1,0-1.5,0.95-1.5,2.84v9.75h-7.17
		v-30.2h7.17v10.8c0,0.58,0,1.07-0.01,1.47s-0.02,0.69-0.03,0.89c-0.01,0.2-0.03,0.42-0.05,0.64c-0.02,0.23-0.05,0.48-0.07,0.75
		c1.16-2.73,2.85-4.1,5.08-4.1c1.55,0,2.75,0.58,3.61,1.74c0.87,1.16,1.31,2.77,1.31,4.83V86.03z"/>
</g>
<path class="st10" d="M65.16,132.08H10.33c-4.16,0-7.54-3.38-7.54-7.54l0-114.19c0-4.16,3.38-7.54,7.54-7.54h54.83
	c4.16,0,7.54,3.38,7.54,7.54v114.19C72.7,128.7,69.32,132.08,65.16,132.08z"/>
<circle class="st23" cx="38.03" cy="123.34" r="3.64"/>
<path class="st23" d="M49.73,72.64c-2.6,0-4.29,0.06-5,2.04c-0.14,0.4-1.8,0.51-2.15,0.27c-2.37-1.54-1.91-0.87-4.55-3.12
	c-2.86-2.44-5.14-4.5-6.93-6.54c-0.27-0.31-2.33-4.77-1.95-4.93c1.99-0.87,0.84-3.52,0.84-6.15c0-3,0.15-3.51-2.86-3.51
	c-3.01,0-5.33,1.34-5.33,4.35c0,1.02,0,3.15,0.82,7.79c0.79,3.13,1.66,5.79,8.05,11.24c5.78,4.94,10.84,7.36,14.17,7.14
	c4.08-0.27,5.11-0.55,5.69-0.75c3.41-1.2,3.75-1.78,3.75-4.78C54.26,72.68,52.73,72.64,49.73,72.64z"/>
<line class="st10" x1="2.71" y1="113.96" x2="73.34" y2="113.96"/>
<line class="st10" x1="2.71" y1="13.94" x2="73.34" y2="13.94"/>
<path class="st24" d="M41.92,36.24c1.1-0.1,7.3-0.55,12.63,4.03c5.55,4.77,5.88,11.3,5.91,12.36"/>
<path class="st24" d="M37.74,49.83c0.65-0.06,4.34-0.33,7.51,2.4c3.3,2.84,3.49,6.72,3.52,7.35"/>
<path class="st24" d="M39.71,42.5c0.93-0.08,6.17-0.47,10.67,3.41c4.69,4.03,4.97,9.55,5,10.45"/>
</svg>
