<?xml version="1.0" encoding="utf-8"?>
<!-- Generator: Adobe Illustrator 26.5.0, SVG Export Plug-In . SVG Version: 6.00 Build 0)  -->
<svg version="1.1" id="Warstwa_1" xmlns="http://www.w3.org/2000/svg" xmlns:xlink="http://www.w3.org/1999/xlink" x="0px" y="0px"
	 viewBox="0 0 278.95 100.5" style="enable-background:new 0 0 278.95 100.5;" xml:space="preserve">
<style type="text/css">
	.st0{fill:#FFFFFF;}
	.st1{fill:#172A42;}
	.st2{fill:#FFFFFF;stroke:#FFFFFF;stroke-miterlimit:10;}
	.st3{fill:#FFFFFF;stroke:#FFFFFF;stroke-width:0.7022;stroke-miterlimit:10;}
	.st4{fill:#FFFFFF;stroke:#FFFFFF;stroke-width:15;stroke-miterlimit:10;}
	.st5{fill:#222221;stroke:#222221;stroke-width:4.3264;stroke-miterlimit:10;}
	.st6{fill:none;stroke:#222221;stroke-width:5.6693;stroke-miterlimit:10;}
	.st7{fill:none;stroke:#222221;stroke-width:4.6215;stroke-miterlimit:10;}
	.st8{fill:#FFFFFF;stroke:#222221;stroke-width:5.7894;stroke-miterlimit:10;}
	.st9{fill:none;stroke:#457EBC;stroke-width:5.6693;stroke-miterlimit:10;}
	.st10{fill:none;stroke:#222221;stroke-width:5.462;stroke-linecap:round;stroke-linejoin:round;stroke-miterlimit:10;}
	.st11{fill:#ABC0E4;}
	.st12{fill:#5E7DB5;}
	.st13{fill:#627D9E;}
	.st14{fill:#465A70;}
	.st15{fill:none;stroke:#222221;stroke-width:4;stroke-miterlimit:10;}
	.st16{fill:#222221;}
	.st17{fill:none;stroke:#222221;stroke-width:3.4016;stroke-miterlimit:10;}
	.st18{fill:none;stroke:#222221;stroke-width:3.4016;stroke-linecap:round;stroke-linejoin:round;stroke-miterlimit:10;}
	.st19{fill:#222221;stroke:#222221;stroke-width:3.4016;stroke-linecap:round;stroke-linejoin:round;stroke-miterlimit:10;}
	.st20{fill:#222221;stroke:#222221;stroke-width:3.4016;stroke-miterlimit:10;}
	.st21{fill:none;stroke:#222221;stroke-width:3.2081;stroke-miterlimit:10;}
	.st22{fill:#222221;stroke:#222221;stroke-width:1.4173;stroke-miterlimit:10;}
	.st23{fill:none;stroke:#222221;stroke-width:4;stroke-linecap:round;stroke-linejoin:round;stroke-miterlimit:10;}
	.st24{fill:none;stroke:#222221;stroke-width:3;stroke-miterlimit:10;}
	.st25{fill:#FFFFFF;stroke:#FFFFFF;stroke-width:0.8896;stroke-miterlimit:10;}
	.st26{fill:#242E47;}
	.st27{fill:#FFFFFF;stroke:#222221;stroke-width:6;stroke-miterlimit:10;}
	.st28{fill:none;stroke:#222221;stroke-width:5.7894;stroke-miterlimit:10;}
	.st29{fill:#FFFFFF;stroke:#222221;stroke-width:2.8346;stroke-miterlimit:10;}
	.st30{fill:#FFFFFF;stroke:#FFFFFF;stroke-width:0.2835;stroke-miterlimit:10;}
	.st31{fill:#222221;stroke:#222221;stroke-width:1.8006;stroke-miterlimit:10;}
	.st32{fill:#222221;stroke:#222221;stroke-width:2;stroke-miterlimit:10;}
	.st33{fill:none;stroke:#ABC0E4;stroke-width:8;stroke-miterlimit:10;}
	.st34{fill:none;stroke:#ABC0E4;stroke-width:8.7432;stroke-miterlimit:10;}
	.st35{fill:#1D1D1B;}
	.st36{fill:none;stroke:#FFFFFF;stroke-width:4.5277;stroke-miterlimit:10;}
	.st37{fill:#C7102E;}
	.st38{fill:#FEFEFE;}
	.st39{fill:#012169;}
	.st40{fill:#FDFDFD;}
	.st41{fill:#D8143A;}
</style>
<g>
	<path class="st17" d="M258.86,46.14c-2.98-0.08-10.99-0.28-11.41,1.56c-0.41,1.77,6.32,5.02,11.41,6.63
		c3.3,1.04,6.34,1.53,8.88,1.73c1.51,0.12,2.52-1.52,1.71-2.8l-3.71-5.85c-0.29-0.46-0.76-0.76-1.3-0.83
		C262.98,46.38,261.08,46.2,258.86,46.14z"/>
	<path class="st17" d="M26.44,41.61c-0.31,0.97-1.16,3.13-3.31,4.79c-3.9,2.99-8.62,1.66-9.17,1.5v-10L26.44,41.61z"/>
	<line class="st17" x1="146.36" y1="51.08" x2="133.1" y2="51.08"/>
	<path class="st23" d="M7.32,55.98c0.04-0.08,4.23-7.75,4.23-7.75l-0.03-6.21c-0.03-0.39-0.04-0.78-0.05-1.16
		c-0.02-0.79-0.04-1.54-0.22-2.17c-0.52-1.82-0.12-3.32,1.21-4.46c0.39-0.73,6.67-1.9,7.05-1.94c0.11-0.02,3.86-0.33,5.02-0.37
		c4.49-0.12,9.14-0.25,13.58-1.23c0.81-0.32,12.35-5.14,14.6-6.02c3.07-1.59,19.75-8.28,20.13-8.3c1.61-0.62,11.59-3.15,14.12-3.52
		c1.83-0.58,7.03-1.54,7.79-1.7c0.03-0.01,11.86-1.23,11.86-1.23l1.62-0.06l6.77-0.12c0.01,0,0.03,0,0.04,0
		c0.62,0,1.25-0.04,1.91-0.07c1.55-0.08,6.55,0.16,7.48,0.13c1.75-0.06,9.65,0.09,10.94,0.39l1.12,0.06c0.04,0,0.08,0.01,0.13,0.01
		l3.9,0.59l1.61,0.26c0.03,0,0.06,0.01,0.09,0.02l5.95,1.36c0.11,0.01,0.23,0.04,0.34,0.07c0.4,0.07,17.43,6.49,17.43,6.49
		c0.06,0.03,3.95,1.95,3.95,1.95c0.02,0.01,0.04,0.02,0.07,0.03l6.21,3.36c1.5,0.71,11.82,6.2,11.82,6.2l2.16,1.11
		c0.92,0.2,7.33,1.47,7.44,1.5c0,0,10.22,0.32,13.7,0.7c0.89,0.1,1.78,0.19,2.67,0.29l0.55,0.02c1.35,0.06,14.36,0.95,14.36,0.95
		c0.25,0.01,8.2,0.72,9.13,1.02c0.06,0.01,11.41,2.29,12.08,2.42c0.12,0.01,6.82,1.82,8.56,2.48c0.51,0.19,1.02,0.39,1.55,0.57
		c1.57,0.57,3.04,1.33,4.45,2.07c0.74,0.38,3.92,3.94,3.92,3.94c0.3,0.46,0.94,5.4,0.94,5.74c0.26,2.06,0,7.86-0.04,8.04
		c0,0,0.02,1.05,0.03,1.2c0.04,0.59-0.72,7.62-1.08,9.79c-0.02,0.2-0.05,0.39-0.08,0.59c-0.06,0.39-0.11,0.75-0.1,1.08
		c0.02,1.02-0.27,1.81-0.85,2.36c-0.52,0.49-15.56,4.32-15.93,4.05c-0.38-0.27-0.59-0.71-0.57-1.17l-0.15,0
		c-0.58-10.94-9.52-19.63-20.49-19.63c-11.02,0-19.99,8.78-20.49,19.79L84.81,79.97c-0.61-11.29-9.93-20.26-21.37-20.26
		c-11.49,0-20.85,9.06-21.38,20.42c0,0-29.1-2.79-29.43-2.92c0,0-0.01,0-0.01-0.01c-1.79-0.04-5.85-13.06-5.86-13.49
		C6.74,62.73,6.68,57.41,7.32,55.98z"/>
	<circle class="st23" cx="229.99" cy="79.77" r="14.37"/>
	<circle class="st23" cx="62.96" cy="79.77" r="14.37"/>
	<ellipse class="st17" cx="136.76" cy="29.28" rx="4.49" ry="8.62"/>
	<ellipse class="st21" cx="101.24" cy="28.79" rx="4.23" ry="8.13"/>
	<path class="st17" d="M174.77,38.99c-1.02-1.54-2.58-3.64-4.84-5.78c-2.45-2.32-4.93-3.95-8.01-5.6
		c-8.18-4.39-15.87-6.38-16.97-6.65c-12.21-3.08-22.33-3.04-30.56-2.94c-8.77,0.1-16.21,0.18-25.77,2.21
		c-7.56,1.6-19.21,5.01-32.19,13c2.51,0.94,5.02,1.89,7.52,2.83C100.89,37.03,137.83,38.01,174.77,38.99z"/>
</g>
</svg>
