<?xml version="1.0" encoding="utf-8"?>
<!-- Generator: Adobe Illustrator 25.3.1, SVG Export Plug-In . SVG Version: 6.00 Build 0)  -->
<svg version="1.1" id="Warstwa_1" xmlns="http://www.w3.org/2000/svg" xmlns:xlink="http://www.w3.org/1999/xlink" x="0px" y="0px"
	 viewBox="0 0 387.33 208.92" style="enable-background:new 0 0 387.33 208.92;" xml:space="preserve">
<style type="text/css">
	.st0{fill:none;stroke:#000000;stroke-width:2.8686;stroke-miterlimit:10;}
	.st1{fill:none;stroke:#000000;stroke-width:2.9551;stroke-miterlimit:10;}
	.st2{fill:none;stroke:#000000;stroke-width:2.513;stroke-miterlimit:10;}
	.st3{fill:none;stroke:#000000;stroke-width:2.513;stroke-linecap:round;stroke-linejoin:round;stroke-miterlimit:10;}
	.st4{fill:none;stroke:#000000;stroke-width:2.37;stroke-miterlimit:10;}
	.st5{stroke:#000000;stroke-width:1.0471;stroke-miterlimit:10;}
	.st6{fill:none;stroke:#000000;stroke-width:1.902;stroke-miterlimit:10;}
	.st7{fill:none;stroke:#000000;stroke-width:1.4253;stroke-miterlimit:10;}
	.st8{fill:none;stroke:#000000;stroke-width:1.5246;stroke-miterlimit:10;}
</style>
<path class="st2" d="M96.55,119.7c2.2-0.06,8.12-0.21,8.43,1.15c0.3,1.31-4.67,3.71-8.43,4.9c-2.44,0.77-4.68,1.13-6.56,1.28
	c-1.12,0.09-1.86-1.12-1.26-2.07l2.74-4.32c0.22-0.34,0.56-0.56,0.96-0.62C93.5,119.88,94.9,119.74,96.55,119.7z"/>
<path class="st2" d="M268.25,116.36c0.23,0.72,0.86,2.31,2.45,3.54c2.88,2.21,6.37,1.23,6.77,1.11v-7.39L268.25,116.36z"/>
<line class="st2" x1="179.66" y1="123.35" x2="189.45" y2="123.35"/>
<path class="st3" d="M282.37,126.97c-0.03-0.06-3.12-5.73-3.12-5.73l0.02-4.59c0.02-0.29,0.03-0.58,0.04-0.86
	c0.01-0.59,0.03-1.14,0.16-1.6c0.39-1.35,0.09-2.45-0.89-3.3c-0.29-0.54-4.92-1.41-5.21-1.43c-0.08-0.02-2.85-0.25-3.71-0.27
	c-3.32-0.09-6.75-0.18-10.03-0.91c-0.6-0.23-9.12-3.79-10.78-4.45c-2.27-1.17-14.59-6.12-14.87-6.13c-1.19-0.46-8.57-2.32-10.43-2.6
	c-1.35-0.43-5.19-1.14-5.75-1.25c-0.02,0-8.76-0.91-8.76-0.91l-1.2-0.04l-5-0.09c-0.01,0-0.02,0-0.03,0c-0.46,0-0.92-0.03-1.41-0.05
	c-1.14-0.06-4.84,0.12-5.52,0.09c-1.29-0.05-7.13,0.07-8.08,0.29l-0.82,0.05c-0.03,0-0.06,0.01-0.09,0.01l-2.88,0.44l-1.19,0.19
	c-0.02,0-0.04,0.01-0.06,0.01l-4.4,1.01c-0.08,0.01-0.17,0.03-0.25,0.05c-0.29,0.05-12.87,4.8-12.87,4.8
	c-0.05,0.02-2.92,1.44-2.92,1.44c-0.02,0.01-0.03,0.02-0.05,0.03l-4.59,2.48c-1.11,0.52-8.73,4.58-8.73,4.58l-1.59,0.82
	c-0.68,0.15-5.42,1.09-5.5,1.11c0,0-7.55,0.24-10.12,0.52c-0.66,0.07-1.31,0.14-1.97,0.21l-0.41,0.02c-1,0.04-10.61,0.7-10.61,0.7
	c-0.18,0.01-6.06,0.53-6.74,0.75c-0.05,0.01-8.43,1.69-8.93,1.79c-0.09,0.01-5.04,1.35-6.32,1.83c-0.38,0.14-0.75,0.28-1.14,0.42
	c-1.16,0.42-2.24,0.98-3.29,1.53c-0.54,0.28-2.89,2.91-2.89,2.91c-0.22,0.34-0.69,3.99-0.69,4.24c-0.19,1.52,0,5.81,0.03,5.94
	c0,0-0.01,0.78-0.02,0.89c-0.03,0.43,0.53,5.63,0.8,7.23c0.02,0.14,0.04,0.29,0.06,0.43c0.04,0.29,0.08,0.56,0.08,0.8
	c-0.01,0.75,0.2,1.34,0.63,1.74c0.38,0.36,11.49,3.19,11.77,2.99c0.28-0.2,0.44-0.52,0.42-0.87l0.11,0
	c0.43-8.08,7.03-14.5,15.13-14.5c8.14,0,14.77,6.48,15.14,14.62l92.26,0.35c0.45-8.34,7.34-14.97,15.79-14.97
	c8.49,0,15.4,6.69,15.79,15.09c0,0,21.5-2.06,21.74-2.16c0,0,0.01,0,0.01,0c1.33-0.03,4.32-9.65,4.33-9.97
	C282.8,131.95,282.84,128.03,282.37,126.97z"/>
<circle class="st3" cx="117.87" cy="144.55" r="10.62"/>
<circle class="st3" cx="241.27" cy="145.28" r="10.62"/>
<ellipse class="st2" cx="186.75" cy="107.24" rx="3.32" ry="6.37"/>
<path class="st2" d="M158.67,114.42c0.75-1.14,1.91-2.69,3.58-4.27c1.81-1.71,3.64-2.92,5.91-4.14c6.04-3.24,11.72-4.71,12.54-4.92
	c9.02-2.28,16.5-2.24,22.57-2.18c6.48,0.07,11.98,0.13,19.04,1.63c5.59,1.19,14.19,3.7,23.78,9.6c-1.85,0.7-3.71,1.4-5.56,2.09
	C213.24,112.97,185.96,113.7,158.67,114.42z"/>
</svg>
