<?xml version="1.0" encoding="utf-8"?>
<!-- Generator: Adobe Illustrator 26.5.0, SVG Export Plug-In . SVG Version: 6.00 Build 0)  -->
<svg version="1.1" id="Warstwa_1" xmlns="http://www.w3.org/2000/svg" xmlns:xlink="http://www.w3.org/1999/xlink" x="0px" y="0px"
	 viewBox="0 0 371.78 304.46" style="enable-background:new 0 0 371.78 304.46;" xml:space="preserve">
<style type="text/css">
	.st0{fill:#FFFFFF;}
	.st1{fill:#172A42;}
	.st2{fill:#FFFFFF;stroke:#FFFFFF;stroke-miterlimit:10;}
	.st3{fill:#FFFFFF;stroke:#FFFFFF;stroke-width:0.7022;stroke-miterlimit:10;}
	.st4{fill:#FFFFFF;stroke:#FFFFFF;stroke-width:15;stroke-miterlimit:10;}
	.st5{fill:#222221;stroke:#222221;stroke-width:4.3264;stroke-miterlimit:10;}
	.st6{fill:none;stroke:#222221;stroke-width:5.6693;stroke-miterlimit:10;}
	.st7{fill:none;stroke:#222221;stroke-width:4.6215;stroke-miterlimit:10;}
	.st8{fill:#FFFFFF;stroke:#222221;stroke-width:5.7894;stroke-miterlimit:10;}
	.st9{fill:none;stroke:#457EBC;stroke-width:5.6693;stroke-miterlimit:10;}
	.st10{fill:none;stroke:#222221;stroke-width:5.462;stroke-linecap:round;stroke-linejoin:round;stroke-miterlimit:10;}
	.st11{fill:#ABC0E4;}
	.st12{fill:#5E7DB5;}
	.st13{fill:#627D9E;}
	.st14{fill:#465A70;}
	.st15{fill:none;stroke:#222221;stroke-width:4;stroke-miterlimit:10;}
	.st16{fill:#222221;}
	.st17{fill:none;stroke:#222221;stroke-width:3.4016;stroke-miterlimit:10;}
	.st18{fill:none;stroke:#222221;stroke-width:3.4016;stroke-linecap:round;stroke-linejoin:round;stroke-miterlimit:10;}
	.st19{fill:#222221;stroke:#222221;stroke-width:3.4016;stroke-linecap:round;stroke-linejoin:round;stroke-miterlimit:10;}
	.st20{fill:#222221;stroke:#222221;stroke-width:3.4016;stroke-miterlimit:10;}
	.st21{fill:none;stroke:#222221;stroke-width:3.2081;stroke-miterlimit:10;}
	.st22{fill:#222221;stroke:#222221;stroke-width:1.4173;stroke-miterlimit:10;}
	.st23{fill:none;stroke:#222221;stroke-width:4;stroke-linecap:round;stroke-linejoin:round;stroke-miterlimit:10;}
	.st24{fill:none;stroke:#222221;stroke-width:3;stroke-miterlimit:10;}
	.st25{fill:#FFFFFF;stroke:#FFFFFF;stroke-width:0.8896;stroke-miterlimit:10;}
	.st26{fill:#242E47;}
	.st27{fill:#FFFFFF;stroke:#222221;stroke-width:6;stroke-miterlimit:10;}
	.st28{fill:none;stroke:#222221;stroke-width:5.7894;stroke-miterlimit:10;}
	.st29{fill:#FFFFFF;stroke:#222221;stroke-width:2.8346;stroke-miterlimit:10;}
	.st30{fill:#FFFFFF;stroke:#FFFFFF;stroke-width:0.2835;stroke-miterlimit:10;}
	.st31{fill:#222221;stroke:#222221;stroke-width:1.8006;stroke-miterlimit:10;}
	.st32{fill:#222221;stroke:#222221;stroke-width:2;stroke-miterlimit:10;}
	.st33{fill:none;stroke:#ABC0E4;stroke-width:8;stroke-miterlimit:10;}
	.st34{fill:none;stroke:#ABC0E4;stroke-width:8.7432;stroke-miterlimit:10;}
	.st35{fill:#1D1D1B;}
	.st36{fill:none;stroke:#FFFFFF;stroke-width:4.5277;stroke-miterlimit:10;}
	.st37{fill:#C7102E;}
	.st38{fill:#FEFEFE;}
	.st39{fill:#012169;}
	.st40{fill:#FDFDFD;}
	.st41{fill:#D8143A;}
</style>
<g>
	<g>
		<path class="st7" d="M187.65,16.84c68.04-0.87,124.67,54.62,125.53,122.36c0.88,69.14-56.65,126.41-125.53,125.53
			c-66.89-0.85-122.36-56.24-122.36-123.94C65.29,73.29,120.42,17.7,187.65,16.84z"/>
	</g>
	<path class="st7" d="M187.95,40.57c55.02-0.71,100.8,44.16,101.5,98.93c0.71,55.91-45.8,102.21-101.5,101.5
		c-54.08-0.69-98.93-45.48-98.93-100.22C89.02,86.21,133.6,41.26,187.95,40.57z"/>
	<g>
		<path class="st7" d="M89.98,146.83c6.72-1.58,28.09-5.69,50.75,5.34c5.77,2.81,20.9,10.43,30.27,27.6
			c15.04,27.55,2.65,56.59,0.89,60.54"/>
		<path class="st7" d="M96.21,106.77c20.33,12.54,35.55,13.58,46.29,11.57c10.65-1.99,10.57-5.8,24.93-8.9
			c21.23-4.59,39.09-0.08,45.4,1.78c10.77,3.17,10.65,5.33,17.81,7.12c10.62,2.66,27.12,1.96,51.64-15.13"/>
		<path class="st7" d="M213.73,241.2c-3.15-6.92-7.33-18.35-8.01-32.94c-0.53-11.33-1.18-25.21,7.12-37.39
			c9.25-13.58,24.61-17.67,41.84-22.26c14.05-3.74,26.04-4.44,33.83-4.45"/>
	</g>
	<path class="st8" d="M312.83,294.83c-17.51-30.41-19.51-53.02-17.87-68.34c1.02-9.49,3.69-18.66-1.05-29.44
		c-7.02-15.94-20.37-12.94-27.33-27.33c-8.56-17.68,7.88-29.9-2.1-50.46c-4.25-8.76-10.56-13.39-8.41-18.92
		c1.89-4.87,9.48-8.26,14.72-6.31c7.45,2.78,4.53,14.33,12.62,19.98c9.17,6.4,27.09,1.42,29.44-6.31c2.43-8-12.72-15.86-10.51-19.97
		c3.24-6.03,40.61,1.81,44.16,17.87c1.21,5.49-2.03,9.72,1.05,16.82c2.79,6.43,6.89,6.28,9.46,11.56
		c2.91,5.96,0.68,12.28-5.26,27.33c-10.56,26.76-11.21,26.29-11.56,29.44c-1.08,9.66,4.02,24.05,32.59,44.16"/>
	<path class="st8" d="M65.74,294.83c17.51-30.41,19.51-53.02,17.87-68.34c-1.02-9.49-3.69-18.66,1.05-29.44
		c7.02-15.94,20.37-12.94,27.33-27.33c8.56-17.68-7.88-29.9,2.1-50.46c4.25-8.76,10.56-13.39,8.41-18.92
		c-1.89-4.87-9.48-8.26-14.72-6.31c-7.45,2.78-4.53,14.33-12.62,19.98c-9.17,6.4-27.09,1.42-29.44-6.31
		c-2.43-8,12.72-15.86,10.51-19.97c-3.24-6.03-40.61,1.81-44.16,17.87c-1.21,5.49,2.03,9.72-1.05,16.82
		c-2.79,6.43-6.89,6.28-9.46,11.56c-2.91,5.96-0.68,12.28,5.26,27.33c10.56,26.76,11.21,26.29,11.56,29.44
		c1.08,9.66-4.02,24.05-32.59,44.16"/>
</g>
</svg>
