<?xml version="1.0" encoding="utf-8"?>
<!-- Generator: Adobe Illustrator 26.5.0, SVG Export Plug-In . SVG Version: 6.00 Build 0)  -->
<svg version="1.1" id="Warstwa_1" xmlns="http://www.w3.org/2000/svg" xmlns:xlink="http://www.w3.org/1999/xlink" x="0px" y="0px"
	 viewBox="0 0 115.93 106.68" style="enable-background:new 0 0 115.93 106.68;" xml:space="preserve">
<style type="text/css">
	.st0{fill:#FFFFFF;}
	.st1{fill:#172A42;}
	.st2{fill:#FFFFFF;stroke:#FFFFFF;stroke-miterlimit:10;}
	.st3{fill:#FFFFFF;stroke:#FFFFFF;stroke-width:0.7022;stroke-miterlimit:10;}
	.st4{fill:#FFFFFF;stroke:#FFFFFF;stroke-width:15;stroke-miterlimit:10;}
	.st5{fill:#222221;stroke:#222221;stroke-width:4.3264;stroke-miterlimit:10;}
	.st6{fill:none;stroke:#222221;stroke-width:5.6693;stroke-miterlimit:10;}
	.st7{fill:none;stroke:#222221;stroke-width:4.6215;stroke-miterlimit:10;}
	.st8{fill:#FFFFFF;stroke:#222221;stroke-width:5.7894;stroke-miterlimit:10;}
	.st9{fill:none;stroke:#457EBC;stroke-width:5.6693;stroke-miterlimit:10;}
	.st10{fill:none;stroke:#222221;stroke-width:5.462;stroke-linecap:round;stroke-linejoin:round;stroke-miterlimit:10;}
	.st11{fill:#ABC0E4;}
	.st12{fill:#5E7DB5;}
	.st13{fill:#627D9E;}
	.st14{fill:#465A70;}
	.st15{fill:none;stroke:#222221;stroke-width:4;stroke-miterlimit:10;}
	.st16{fill:#222221;}
	.st17{fill:none;stroke:#222221;stroke-width:3.4016;stroke-miterlimit:10;}
	.st18{fill:none;stroke:#222221;stroke-width:3.4016;stroke-linecap:round;stroke-linejoin:round;stroke-miterlimit:10;}
	.st19{fill:#222221;stroke:#222221;stroke-width:3.4016;stroke-linecap:round;stroke-linejoin:round;stroke-miterlimit:10;}
	.st20{fill:#222221;stroke:#222221;stroke-width:3.4016;stroke-miterlimit:10;}
	.st21{fill:none;stroke:#222221;stroke-width:3.2081;stroke-miterlimit:10;}
	.st22{fill:#222221;stroke:#222221;stroke-width:1.4173;stroke-miterlimit:10;}
	.st23{fill:none;stroke:#222221;stroke-width:4;stroke-linecap:round;stroke-linejoin:round;stroke-miterlimit:10;}
	.st24{fill:none;stroke:#222221;stroke-width:3;stroke-miterlimit:10;}
	.st25{fill:#FFFFFF;stroke:#FFFFFF;stroke-width:0.8896;stroke-miterlimit:10;}
	.st26{fill:#242E47;}
	.st27{fill:#FFFFFF;stroke:#222221;stroke-width:6;stroke-miterlimit:10;}
	.st28{fill:none;stroke:#222221;stroke-width:5.7894;stroke-miterlimit:10;}
	.st29{fill:#FFFFFF;stroke:#222221;stroke-width:2.8346;stroke-miterlimit:10;}
	.st30{fill:#FFFFFF;stroke:#FFFFFF;stroke-width:0.2835;stroke-miterlimit:10;}
	.st31{fill:#222221;stroke:#222221;stroke-width:1.8006;stroke-miterlimit:10;}
	.st32{fill:#222221;stroke:#222221;stroke-width:2;stroke-miterlimit:10;}
	.st33{fill:none;stroke:#ABC0E4;stroke-width:8;stroke-miterlimit:10;}
	.st34{fill:none;stroke:#ABC0E4;stroke-width:8.7432;stroke-miterlimit:10;}
	.st35{fill:#1D1D1B;}
	.st36{fill:none;stroke:#FFFFFF;stroke-width:4.5277;stroke-miterlimit:10;}
	.st37{fill:#C7102E;}
	.st38{fill:#FEFEFE;}
	.st39{fill:#012169;}
	.st40{fill:#FDFDFD;}
	.st41{fill:#D8143A;}
</style>
<g>
	<rect x="54.84" y="42.42" class="st15" width="6.25" height="59.84"/>
	<path class="st15" d="M104.79,42.42l-93.65,0c-0.99,0-1.8-0.8-1.8-1.8l0-34.67c0-0.99,0.8-1.8,1.8-1.8l93.65,0
		c0.99,0,1.8,0.8,1.8,1.8v34.67C106.58,41.62,105.78,42.42,104.79,42.42z"/>
</g>
<g>
	<path class="st16" d="M27.35,21h5.93v-5.38h2.08v13.75h-2.08v-6.42h-5.93v6.42h-2.07V15.62h2.07V21z"/>
	<path class="st16" d="M41.62,22.43c0-1.94,0.71-3.6,2.13-4.99c1.41-1.39,3.11-2.08,5.1-2.08c1.96,0,3.64,0.7,5.04,2.1
		c1.41,1.4,2.11,3.09,2.11,5.05c0,1.98-0.71,3.66-2.12,5.03c-1.42,1.38-3.13,2.08-5.14,2.08c-1.78,0-3.37-0.61-4.78-1.84
		C42.4,26.42,41.62,24.63,41.62,22.43z M43.71,22.46c0,1.52,0.51,2.77,1.53,3.75c1.01,0.98,2.19,1.47,3.52,1.47
		c1.44,0,2.66-0.5,3.65-1.5c0.99-1.01,1.49-2.24,1.49-3.69c0-1.47-0.49-2.69-1.47-3.69c-0.97-1-2.18-1.5-3.62-1.5
		c-1.43,0-2.64,0.5-3.63,1.5C44.21,19.79,43.71,21.01,43.71,22.46z"/>
	<path class="st16" d="M61.77,29.37l2.89-14.78l4.72,10.69l4.89-10.69l2.6,14.78h-2.13l-1.33-8.3L69.35,30l-3.95-8.94l-1.48,8.31
		H61.77z"/>
	<path class="st16" d="M91.02,17.57h-5.51v3.31h5.35v1.95h-5.35v4.6h5.51v1.95h-7.59V15.62h7.59V17.57z"/>
</g>
</svg>
