<?xml version="1.0" encoding="utf-8"?>
<!-- Generator: Adobe Illustrator 25.3.1, SVG Export Plug-In . SVG Version: 6.00 Build 0)  -->
<svg version="1.1" id="Warstwa_1" xmlns="http://www.w3.org/2000/svg" xmlns:xlink="http://www.w3.org/1999/xlink" x="0px" y="0px"
	 viewBox="0 0 387.33 208.92" style="enable-background:new 0 0 387.33 208.92;" xml:space="preserve">
<style type="text/css">
	.st0{fill:none;stroke:#000000;stroke-width:2.8686;stroke-miterlimit:10;}
	.st1{fill:none;stroke:#000000;stroke-width:2.9551;stroke-miterlimit:10;}
	.st2{fill:none;stroke:#000000;stroke-width:2.513;stroke-miterlimit:10;}
	.st3{fill:none;stroke:#000000;stroke-width:2.513;stroke-linecap:round;stroke-linejoin:round;stroke-miterlimit:10;}
	.st4{fill:none;stroke:#000000;stroke-width:2.37;stroke-miterlimit:10;}
	.st5{stroke:#000000;stroke-width:1.0471;stroke-miterlimit:10;}
	.st6{fill:none;stroke:#000000;stroke-width:1.902;stroke-miterlimit:10;}
	.st7{fill:none;stroke:#000000;stroke-width:1.4253;stroke-miterlimit:10;}
	.st8{fill:none;stroke:#000000;stroke-width:1.5246;stroke-miterlimit:10;}
</style>
<g>
	<rect x="183.34" y="99" class="st1" width="4.62" height="44.21"/>
	<path class="st1" d="M219.78,99h-68.25c-0.99,0-1.8-0.8-1.8-1.8V72.53c0-0.99,0.8-1.8,1.8-1.8h68.25c0.99,0,1.8,0.8,1.8,1.8v24.68
		C221.57,98.2,220.77,99,219.78,99z"/>
</g>
<g>
	<path d="M163.04,83.17h4.38V79.2h1.53v10.16h-1.53v-4.74h-4.38v4.74h-1.53V79.2h1.53V83.17z"/>
	<path d="M173.58,84.23c0-1.43,0.52-2.66,1.57-3.68c1.04-1.03,2.3-1.54,3.77-1.54c1.45,0,2.69,0.52,3.72,1.55
		c1.04,1.04,1.56,2.28,1.56,3.73c0,1.46-0.52,2.7-1.57,3.72c-1.05,1.02-2.31,1.53-3.8,1.53c-1.31,0-2.49-0.45-3.53-1.36
		C174.15,87.18,173.58,85.86,173.58,84.23z M175.12,84.25c0,1.12,0.38,2.05,1.13,2.77c0.75,0.72,1.62,1.08,2.6,1.08
		c1.07,0,1.97-0.37,2.7-1.1c0.73-0.75,1.1-1.65,1.1-2.73c0-1.08-0.36-1.99-1.09-2.72c-0.72-0.74-1.61-1.1-2.67-1.1
		c-1.06,0-1.95,0.37-2.68,1.1C175.49,82.28,175.12,83.18,175.12,84.25z"/>
	<path d="M188.47,89.36l2.14-10.92l3.49,7.9l3.61-7.9l1.92,10.92h-1.57l-0.98-6.13l-3.01,6.6l-2.92-6.61l-1.09,6.14H188.47z"/>
	<path d="M210.08,80.64H206v2.44h3.96v1.44H206v3.4h4.07v1.44h-5.61V79.2h5.61V80.64z"/>
</g>
</svg>
