<?xml version="1.0" encoding="utf-8"?>
<!-- Generator: Adobe Illustrator 26.5.0, SVG Export Plug-In . SVG Version: 6.00 Build 0)  -->
<svg version="1.1" id="Warstwa_1" xmlns="http://www.w3.org/2000/svg" xmlns:xlink="http://www.w3.org/1999/xlink" x="0px" y="0px"
	 viewBox="0 0 119.94 109.4" style="enable-background:new 0 0 119.94 109.4;" xml:space="preserve">
<style type="text/css">
	.st0{fill:#FFFFFF;}
	.st1{fill:#172A42;}
	.st2{fill:#FFFFFF;stroke:#FFFFFF;stroke-miterlimit:10;}
	.st3{fill:#FFFFFF;stroke:#FFFFFF;stroke-width:0.7022;stroke-miterlimit:10;}
	.st4{fill:#FFFFFF;stroke:#FFFFFF;stroke-width:15;stroke-miterlimit:10;}
	.st5{fill:#222221;stroke:#222221;stroke-width:4.3264;stroke-miterlimit:10;}
	.st6{fill:none;stroke:#222221;stroke-width:5.6693;stroke-miterlimit:10;}
	.st7{fill:none;stroke:#222221;stroke-width:4.6215;stroke-miterlimit:10;}
	.st8{fill:#FFFFFF;stroke:#222221;stroke-width:5.7894;stroke-miterlimit:10;}
	.st9{fill:none;stroke:#457EBC;stroke-width:5.6693;stroke-miterlimit:10;}
	.st10{fill:none;stroke:#222221;stroke-width:5.462;stroke-linecap:round;stroke-linejoin:round;stroke-miterlimit:10;}
	.st11{fill:#ABC0E4;}
	.st12{fill:#5E7DB5;}
	.st13{fill:#627D9E;}
	.st14{fill:#465A70;}
	.st15{fill:none;stroke:#222221;stroke-width:4;stroke-miterlimit:10;}
	.st16{fill:#222221;}
	.st17{fill:none;stroke:#222221;stroke-width:3.4016;stroke-miterlimit:10;}
	.st18{fill:none;stroke:#222221;stroke-width:3.4016;stroke-linecap:round;stroke-linejoin:round;stroke-miterlimit:10;}
	.st19{fill:#222221;stroke:#222221;stroke-width:3.4016;stroke-linecap:round;stroke-linejoin:round;stroke-miterlimit:10;}
	.st20{fill:#222221;stroke:#222221;stroke-width:3.4016;stroke-miterlimit:10;}
	.st21{fill:none;stroke:#222221;stroke-width:3.2081;stroke-miterlimit:10;}
	.st22{fill:#222221;stroke:#222221;stroke-width:1.4173;stroke-miterlimit:10;}
	.st23{fill:none;stroke:#222221;stroke-width:4;stroke-linecap:round;stroke-linejoin:round;stroke-miterlimit:10;}
	.st24{fill:none;stroke:#222221;stroke-width:3;stroke-miterlimit:10;}
	.st25{fill:#FFFFFF;stroke:#FFFFFF;stroke-width:0.8896;stroke-miterlimit:10;}
	.st26{fill:#242E47;}
	.st27{fill:#FFFFFF;stroke:#222221;stroke-width:6;stroke-miterlimit:10;}
	.st28{fill:none;stroke:#222221;stroke-width:5.7894;stroke-miterlimit:10;}
	.st29{fill:#FFFFFF;stroke:#222221;stroke-width:2.8346;stroke-miterlimit:10;}
	.st30{fill:#FFFFFF;stroke:#FFFFFF;stroke-width:0.2835;stroke-miterlimit:10;}
	.st31{fill:#222221;stroke:#222221;stroke-width:1.8006;stroke-miterlimit:10;}
	.st32{fill:#222221;stroke:#222221;stroke-width:2;stroke-miterlimit:10;}
	.st33{fill:none;stroke:#ABC0E4;stroke-width:8;stroke-miterlimit:10;}
	.st34{fill:none;stroke:#ABC0E4;stroke-width:8.7432;stroke-miterlimit:10;}
	.st35{fill:#1D1D1B;}
	.st36{fill:none;stroke:#FFFFFF;stroke-width:4.5277;stroke-miterlimit:10;}
	.st37{fill:#C7102E;}
	.st38{fill:#FEFEFE;}
	.st39{fill:#012169;}
	.st40{fill:#FDFDFD;}
	.st41{fill:#D8143A;}
</style>
<g>
	<rect x="54.84" y="43.91" class="st15" width="6.25" height="59.84"/>
	<path class="st15" d="M104.79,43.91H11.14c-0.99,0-1.8-0.8-1.8-1.8l0-34.67c0-0.99,0.8-1.8,1.8-1.8l93.65,0c0.99,0,1.8,0.8,1.8,1.8
		v34.67C106.58,43.11,105.78,43.91,104.79,43.91z"/>
</g>
<g>
	<path class="st16" d="M26.92,26.71v5.8h-2.15V18.22h2.44c1.2,0,2.1,0.08,2.71,0.25c0.61,0.17,1.16,0.48,1.63,0.94
		c0.82,0.8,1.23,1.81,1.23,3.04c0,1.31-0.44,2.34-1.31,3.11c-0.88,0.77-2.06,1.15-3.54,1.15H26.92z M26.92,24.71h0.81
		c1.98,0,2.97-0.76,2.97-2.29c0-1.48-1.02-2.21-3.07-2.21h-0.71V24.71z"/>
	<path class="st16" d="M45.92,29.04H39.8l-1.59,3.47h-2.32l7.07-15.19l6.82,15.19h-2.36L45.92,29.04z M45.04,27.01l-2.12-4.86
		l-2.22,4.86H45.04z"/>
	<path class="st16" d="M59.96,26.42l4.42,6.09h-2.64l-4.08-5.85h-0.39v5.85h-2.15V18.22h2.53c1.89,0,3.25,0.35,4.09,1.06
		c0.93,0.79,1.39,1.83,1.39,3.13c0,1.01-0.29,1.88-0.87,2.61C61.68,25.75,60.91,26.22,59.96,26.42z M57.28,24.78h0.69
		c2.04,0,3.06-0.78,3.06-2.34c0-1.46-0.99-2.19-2.98-2.19h-0.77V24.78z"/>
	<path class="st16" d="M73.87,20.25v12.26h-2.15V20.25h-3.29v-2.03h8.72v2.03H73.87z"/>
	<path class="st16" d="M86.45,26.34l-4.67-8.11h2.48l3.27,5.71l3.27-5.71h2.48l-4.68,8.11v6.17h-2.15V26.34z"/>
</g>
</svg>
