<?xml version="1.0" encoding="utf-8"?>
<!-- Generator: Adobe Illustrator 25.3.1, SVG Export Plug-In . SVG Version: 6.00 Build 0)  -->
<svg version="1.1" id="Warstwa_1" xmlns="http://www.w3.org/2000/svg" xmlns:xlink="http://www.w3.org/1999/xlink" x="0px" y="0px"
	 viewBox="0 0 387.33 208.92" style="enable-background:new 0 0 387.33 208.92;" xml:space="preserve">
<style type="text/css">
	.st0{fill:none;stroke:#000000;stroke-width:2.8686;stroke-miterlimit:10;}
	.st1{fill:none;stroke:#000000;stroke-width:2.9551;stroke-miterlimit:10;}
	.st2{fill:none;stroke:#000000;stroke-width:2.513;stroke-miterlimit:10;}
	.st3{fill:none;stroke:#000000;stroke-width:2.513;stroke-linecap:round;stroke-linejoin:round;stroke-miterlimit:10;}
	.st4{fill:none;stroke:#000000;stroke-width:2.37;stroke-miterlimit:10;}
	.st5{stroke:#000000;stroke-width:1.0471;stroke-miterlimit:10;}
	.st6{fill:none;stroke:#000000;stroke-width:1.902;stroke-miterlimit:10;}
	.st7{fill:none;stroke:#000000;stroke-width:1.4253;stroke-miterlimit:10;}
	.st8{fill:none;stroke:#000000;stroke-width:1.5246;stroke-miterlimit:10;}
</style>
<g>
	<rect x="178.6" y="107.72" class="st1" width="4.62" height="44.21"/>
	<path class="st1" d="M215.03,107.72h-68.25c-0.99,0-1.8-0.8-1.8-1.8V81.25c0-0.99,0.8-1.8,1.8-1.8h68.25c0.99,0,1.8,0.8,1.8,1.8
		v24.68C216.83,106.91,216.02,107.72,215.03,107.72z"/>
</g>
<g>
	<path d="M157.98,95.01v4.29h-1.59V88.74h1.8c0.88,0,1.55,0.06,2,0.18c0.45,0.12,0.86,0.36,1.2,0.7c0.61,0.59,0.91,1.34,0.91,2.24
		c0,0.96-0.32,1.73-0.97,2.3c-0.65,0.57-1.52,0.85-2.62,0.85H157.98z M157.98,93.53h0.6c1.46,0,2.19-0.56,2.19-1.69
		c0-1.09-0.76-1.63-2.26-1.63h-0.53V93.53z"/>
	<path d="M172.01,96.73h-4.52l-1.18,2.56h-1.72l5.22-11.22l5.04,11.22h-1.74L172.01,96.73z M171.36,95.23l-1.57-3.59l-1.64,3.59
		H171.36z"/>
	<path d="M182.39,94.79l3.27,4.5h-1.95l-3.01-4.32h-0.29v4.32h-1.59V88.74h1.87c1.39,0,2.4,0.26,3.02,0.78
		c0.68,0.58,1.03,1.35,1.03,2.31c0,0.75-0.21,1.39-0.64,1.93C183.65,94.3,183.09,94.64,182.39,94.79z M180.4,93.58h0.51
		c1.51,0,2.26-0.58,2.26-1.73c0-1.08-0.73-1.62-2.2-1.62h-0.57V93.58z"/>
	<path d="M192.66,90.24v9.06h-1.59v-9.06h-2.43v-1.5h6.44v1.5H192.66z"/>
	<path d="M201.95,94.73l-3.45-5.99h1.83l2.41,4.22l2.42-4.22H207l-3.46,5.99v4.56h-1.59V94.73z"/>
</g>
</svg>
