<?xml version="1.0" encoding="utf-8"?>
<!-- Generator: Adobe Illustrator 26.5.0, SVG Export Plug-In . SVG Version: 6.00 Build 0)  -->
<svg version="1.1" id="Warstwa_1" xmlns="http://www.w3.org/2000/svg" xmlns:xlink="http://www.w3.org/1999/xlink" x="0px" y="0px"
	 viewBox="0 0 172.9 177.21" style="enable-background:new 0 0 172.9 177.21;" xml:space="preserve">
<style type="text/css">
	.st0{fill:#FFFFFF;}
	.st1{fill:#172A42;}
	.st2{fill:#FFFFFF;stroke:#FFFFFF;stroke-miterlimit:10;}
	.st3{fill:#FFFFFF;stroke:#FFFFFF;stroke-width:0.7022;stroke-miterlimit:10;}
	.st4{fill:#FFFFFF;stroke:#FFFFFF;stroke-width:15;stroke-miterlimit:10;}
	.st5{fill:#222221;stroke:#222221;stroke-width:4.3264;stroke-miterlimit:10;}
	.st6{fill:none;stroke:#222221;stroke-width:5.6693;stroke-miterlimit:10;}
	.st7{fill:none;stroke:#222221;stroke-width:4.6215;stroke-miterlimit:10;}
	.st8{fill:#FFFFFF;stroke:#222221;stroke-width:5.7894;stroke-miterlimit:10;}
	.st9{fill:none;stroke:#457EBC;stroke-width:5.6693;stroke-miterlimit:10;}
	.st10{fill:none;stroke:#222221;stroke-width:5.462;stroke-linecap:round;stroke-linejoin:round;stroke-miterlimit:10;}
	.st11{fill:#ABC0E4;}
	.st12{fill:#5E7DB5;}
	.st13{fill:#627D9E;}
	.st14{fill:#465A70;}
	.st15{fill:none;stroke:#222221;stroke-width:4;stroke-miterlimit:10;}
	.st16{fill:#222221;}
	.st17{fill:none;stroke:#222221;stroke-width:3.4016;stroke-miterlimit:10;}
	.st18{fill:none;stroke:#222221;stroke-width:3.4016;stroke-linecap:round;stroke-linejoin:round;stroke-miterlimit:10;}
	.st19{fill:#222221;stroke:#222221;stroke-width:3.4016;stroke-linecap:round;stroke-linejoin:round;stroke-miterlimit:10;}
	.st20{fill:#222221;stroke:#222221;stroke-width:3.4016;stroke-miterlimit:10;}
	.st21{fill:none;stroke:#222221;stroke-width:3.2081;stroke-miterlimit:10;}
	.st22{fill:#222221;stroke:#222221;stroke-width:1.4173;stroke-miterlimit:10;}
	.st23{fill:none;stroke:#222221;stroke-width:4;stroke-linecap:round;stroke-linejoin:round;stroke-miterlimit:10;}
	.st24{fill:none;stroke:#222221;stroke-width:3;stroke-miterlimit:10;}
	.st25{fill:#FFFFFF;stroke:#FFFFFF;stroke-width:0.8896;stroke-miterlimit:10;}
	.st26{fill:#242E47;}
	.st27{fill:#FFFFFF;stroke:#222221;stroke-width:6;stroke-miterlimit:10;}
	.st28{fill:none;stroke:#222221;stroke-width:5.7894;stroke-miterlimit:10;}
	.st29{fill:#FFFFFF;stroke:#222221;stroke-width:2.8346;stroke-miterlimit:10;}
	.st30{fill:#FFFFFF;stroke:#FFFFFF;stroke-width:0.2835;stroke-miterlimit:10;}
	.st31{fill:#222221;stroke:#222221;stroke-width:1.8006;stroke-miterlimit:10;}
	.st32{fill:#222221;stroke:#222221;stroke-width:2;stroke-miterlimit:10;}
	.st33{fill:none;stroke:#ABC0E4;stroke-width:8;stroke-miterlimit:10;}
	.st34{fill:none;stroke:#ABC0E4;stroke-width:8.7432;stroke-miterlimit:10;}
	.st35{fill:#1D1D1B;}
	.st36{fill:none;stroke:#FFFFFF;stroke-width:4.5277;stroke-miterlimit:10;}
	.st37{fill:#C7102E;}
	.st38{fill:#FEFEFE;}
	.st39{fill:#012169;}
	.st40{fill:#FDFDFD;}
	.st41{fill:#D8143A;}
</style>
<g>
	<path class="st6" d="M130.97,168.02H42.53c-19.23,0-34.82-15.59-34.82-34.82V44.76c0-19.23,15.59-34.82,34.82-34.82h88.44
		c19.23,0,34.82,15.59,34.82,34.82v88.44C165.79,152.43,150.2,168.02,130.97,168.02z"/>
	<path class="st6" d="M66.73,48.1l4.57,13.06c0.99,2.84,0.36,5.99-1.65,8.22l-1.85,2.06c-2.22,2.47-2.74,6.02-1.32,9.02l1.56,3.3
		c0.32,0.67,0.73,1.3,1.22,1.87l11.07,12.77c0.58,0.67,1.26,1.24,2.02,1.69l12.52,7.43c1.27,0.75,2.72,1.15,4.2,1.15l0,0
		c2.57,0,4.99-1.2,6.55-3.25l2.04-2.69c2.66-3.5,7.6-4.29,11.21-1.8l10.45,7.2c2.99,2.06,4.27,5.83,3.17,9.28l-0.91,2.83
		c-0.72,2.25-2.37,4.08-4.54,5.03l-10.09,4.41c-1.38,0.6-2.89,0.82-4.38,0.62l-14.03-0.9c-1.42-0.19-6.23-2.18-7.37-3.05
		l-20.25-13.87c-0.66-0.5-7.02-7.09-7.51-7.77l-14.89-21c-0.56-0.79-5.13-11.19-5.38-12.13l-2.21-8.19
		c-0.44-1.64-0.37-3.38,0.22-4.98l3.05-8.31c0.89-2.43,2.87-4.3,5.35-5.04l7.05-2.13C60.81,41.67,65.27,43.95,66.73,48.1z"/>
</g>
</svg>
