<?xml version="1.0" encoding="utf-8"?>
<!-- Generator: Adobe Illustrator 26.5.0, SVG Export Plug-In . SVG Version: 6.00 Build 0)  -->
<svg version="1.1" id="Warstwa_1" xmlns="http://www.w3.org/2000/svg" xmlns:xlink="http://www.w3.org/1999/xlink" x="0px" y="0px"
	 viewBox="0 0 109.44 100.64" style="enable-background:new 0 0 109.44 100.64;" xml:space="preserve">
<style type="text/css">
	.st0{fill:#FFFFFF;}
	.st1{fill:#172A42;}
	.st2{fill:#FFFFFF;stroke:#FFFFFF;stroke-miterlimit:10;}
	.st3{fill:#FFFFFF;stroke:#FFFFFF;stroke-width:0.7022;stroke-miterlimit:10;}
	.st4{fill:#FFFFFF;stroke:#FFFFFF;stroke-width:15;stroke-miterlimit:10;}
	.st5{fill:#222221;stroke:#222221;stroke-width:4.3264;stroke-miterlimit:10;}
	.st6{fill:none;stroke:#222221;stroke-width:5.6693;stroke-miterlimit:10;}
	.st7{fill:none;stroke:#222221;stroke-width:4.6215;stroke-miterlimit:10;}
	.st8{fill:#FFFFFF;stroke:#222221;stroke-width:5.7894;stroke-miterlimit:10;}
	.st9{fill:none;stroke:#457EBC;stroke-width:5.6693;stroke-miterlimit:10;}
	.st10{fill:none;stroke:#222221;stroke-width:5.462;stroke-linecap:round;stroke-linejoin:round;stroke-miterlimit:10;}
	.st11{fill:#ABC0E4;}
	.st12{fill:#5E7DB5;}
	.st13{fill:#627D9E;}
	.st14{fill:#465A70;}
	.st15{fill:none;stroke:#222221;stroke-width:4;stroke-miterlimit:10;}
	.st16{fill:#222221;}
	.st17{fill:none;stroke:#222221;stroke-width:3.4016;stroke-miterlimit:10;}
	.st18{fill:none;stroke:#222221;stroke-width:3.4016;stroke-linecap:round;stroke-linejoin:round;stroke-miterlimit:10;}
	.st19{fill:#222221;stroke:#222221;stroke-width:3.4016;stroke-linecap:round;stroke-linejoin:round;stroke-miterlimit:10;}
	.st20{fill:#222221;stroke:#222221;stroke-width:3.4016;stroke-miterlimit:10;}
	.st21{fill:none;stroke:#222221;stroke-width:3.2081;stroke-miterlimit:10;}
	.st22{fill:#222221;stroke:#222221;stroke-width:1.4173;stroke-miterlimit:10;}
	.st23{fill:none;stroke:#222221;stroke-width:4;stroke-linecap:round;stroke-linejoin:round;stroke-miterlimit:10;}
	.st24{fill:none;stroke:#222221;stroke-width:3;stroke-miterlimit:10;}
	.st25{fill:#FFFFFF;stroke:#FFFFFF;stroke-width:0.8896;stroke-miterlimit:10;}
	.st26{fill:#242E47;}
	.st27{fill:#FFFFFF;stroke:#222221;stroke-width:6;stroke-miterlimit:10;}
	.st28{fill:none;stroke:#222221;stroke-width:5.7894;stroke-miterlimit:10;}
	.st29{fill:#FFFFFF;stroke:#222221;stroke-width:2.8346;stroke-miterlimit:10;}
	.st30{fill:#FFFFFF;stroke:#FFFFFF;stroke-width:0.2835;stroke-miterlimit:10;}
	.st31{fill:#222221;stroke:#222221;stroke-width:1.8006;stroke-miterlimit:10;}
	.st32{fill:#222221;stroke:#222221;stroke-width:2;stroke-miterlimit:10;}
	.st33{fill:none;stroke:#ABC0E4;stroke-width:8;stroke-miterlimit:10;}
	.st34{fill:none;stroke:#ABC0E4;stroke-width:8.7432;stroke-miterlimit:10;}
	.st35{fill:#1D1D1B;}
	.st36{fill:none;stroke:#FFFFFF;stroke-width:4.5277;stroke-miterlimit:10;}
	.st37{fill:#C7102E;}
	.st38{fill:#FEFEFE;}
	.st39{fill:#012169;}
	.st40{fill:#FDFDFD;}
	.st41{fill:#D8143A;}
</style>
<g id="GE7vao_00000051341711483969739280000002917322348248458383_">
	<g>
		<path class="st40" d="M25.64,50.95c0-5.65,0-11.29,0-16.94c0-0.08,0.01-0.1,0.1-0.1c19.32,0,38.64,0,57.96,0
			c0.09,0,0.1,0.02,0.1,0.1c0,5.65,0,11.29,0,16.94c-0.03,0.03-0.07,0.03-0.12,0.03c-0.05,0-0.1,0-0.15,0c-19.21,0-38.42,0-57.63,0
			C25.82,50.99,25.73,51.01,25.64,50.95z"/>
		<path class="st41" d="M25.64,50.95c19.39,0,38.77,0,58.16,0c0,5.65,0,11.29,0,16.94c0,0.08-0.02,0.1-0.1,0.1
			c-19.35,0-38.7,0-58.05,0C25.64,62.31,25.64,56.63,25.64,50.95z"/>
	</g>
</g>
</svg>
