<?xml version="1.0" encoding="utf-8"?>
<!-- Generator: Adobe Illustrator 26.5.0, SVG Export Plug-In . SVG Version: 6.00 Build 0)  -->
<svg version="1.1" id="Warstwa_1" xmlns="http://www.w3.org/2000/svg" xmlns:xlink="http://www.w3.org/1999/xlink" x="0px" y="0px"
	 viewBox="0 0 109.44 100.64" style="enable-background:new 0 0 109.44 100.64;" xml:space="preserve">
<style type="text/css">
	.st0{fill:#FFFFFF;}
	.st1{fill:#172A42;}
	.st2{fill:#FFFFFF;stroke:#FFFFFF;stroke-miterlimit:10;}
	.st3{fill:#FFFFFF;stroke:#FFFFFF;stroke-width:0.7022;stroke-miterlimit:10;}
	.st4{fill:#FFFFFF;stroke:#FFFFFF;stroke-width:15;stroke-miterlimit:10;}
	.st5{fill:#222221;stroke:#222221;stroke-width:4.3264;stroke-miterlimit:10;}
	.st6{fill:none;stroke:#222221;stroke-width:5.6693;stroke-miterlimit:10;}
	.st7{fill:none;stroke:#222221;stroke-width:4.6215;stroke-miterlimit:10;}
	.st8{fill:#FFFFFF;stroke:#222221;stroke-width:5.7894;stroke-miterlimit:10;}
	.st9{fill:none;stroke:#457EBC;stroke-width:5.6693;stroke-miterlimit:10;}
	.st10{fill:none;stroke:#222221;stroke-width:5.462;stroke-linecap:round;stroke-linejoin:round;stroke-miterlimit:10;}
	.st11{fill:#ABC0E4;}
	.st12{fill:#5E7DB5;}
	.st13{fill:#627D9E;}
	.st14{fill:#465A70;}
	.st15{fill:none;stroke:#222221;stroke-width:4;stroke-miterlimit:10;}
	.st16{fill:#222221;}
	.st17{fill:none;stroke:#222221;stroke-width:3.4016;stroke-miterlimit:10;}
	.st18{fill:none;stroke:#222221;stroke-width:3.4016;stroke-linecap:round;stroke-linejoin:round;stroke-miterlimit:10;}
	.st19{fill:#222221;stroke:#222221;stroke-width:3.4016;stroke-linecap:round;stroke-linejoin:round;stroke-miterlimit:10;}
	.st20{fill:#222221;stroke:#222221;stroke-width:3.4016;stroke-miterlimit:10;}
	.st21{fill:none;stroke:#222221;stroke-width:3.2081;stroke-miterlimit:10;}
	.st22{fill:#222221;stroke:#222221;stroke-width:1.4173;stroke-miterlimit:10;}
	.st23{fill:none;stroke:#222221;stroke-width:4;stroke-linecap:round;stroke-linejoin:round;stroke-miterlimit:10;}
	.st24{fill:none;stroke:#222221;stroke-width:3;stroke-miterlimit:10;}
	.st25{fill:#FFFFFF;stroke:#FFFFFF;stroke-width:0.8896;stroke-miterlimit:10;}
	.st26{fill:#242E47;}
	.st27{fill:#FFFFFF;stroke:#222221;stroke-width:6;stroke-miterlimit:10;}
	.st28{fill:none;stroke:#222221;stroke-width:5.7894;stroke-miterlimit:10;}
	.st29{fill:#FFFFFF;stroke:#222221;stroke-width:2.8346;stroke-miterlimit:10;}
	.st30{fill:#FFFFFF;stroke:#FFFFFF;stroke-width:0.2835;stroke-miterlimit:10;}
	.st31{fill:#222221;stroke:#222221;stroke-width:1.8006;stroke-miterlimit:10;}
	.st32{fill:#222221;stroke:#222221;stroke-width:2;stroke-miterlimit:10;}
	.st33{fill:none;stroke:#ABC0E4;stroke-width:8;stroke-miterlimit:10;}
	.st34{fill:none;stroke:#ABC0E4;stroke-width:8.7432;stroke-miterlimit:10;}
	.st35{fill:#1D1D1B;}
	.st36{fill:none;stroke:#FFFFFF;stroke-width:4.5277;stroke-miterlimit:10;}
	.st37{fill:#C7102E;}
	.st38{fill:#FEFEFE;}
	.st39{fill:#012169;}
	.st40{fill:#FDFDFD;}
	.st41{fill:#D8143A;}
</style>
<g id="HhgmUH.tif_00000062180811052747625350000015242512846478499765_">
	<g>
		<path class="st37" d="M58.26,73.19c-2.24,0-4.47,0-6.71,0c-0.55-0.48-0.49-1.14-0.5-1.77c-0.01-3.29,0.01-6.58-0.01-9.88
			c-0.01-1.54-0.15-1.69-1.73-1.69c-7.05-0.01-14.1,0-21.15-0.01c-0.7,0-1.45,0.12-2.01-0.49c0-2.23,0-4.45,0-6.68
			c0.52-0.58,1.23-0.49,1.9-0.49c6.71-0.01,13.41,0,20.12,0c0.44,0,0.88,0.01,1.32,0c1.34-0.04,1.54-0.2,1.55-1.53
			c0.03-2.82,0.01-5.65,0.01-8.47c0-0.72,0-1.43,0.01-2.15c0.02-0.91,0.37-1.37,1.39-1.33c1.51,0.07,3.03,0.02,4.55,0.02
			c1.61,0,1.74,0.12,1.75,1.78c0.02,2.98,0,5.96,0.01,8.95c0,0.4-0.01,0.8,0,1.19c0.04,1.33,0.21,1.52,1.54,1.53
			c4.83,0.02,9.66,0.01,14.49,0.01c2.4,0,4.79-0.01,7.19,0.01c1.67,0.01,1.79,0.15,1.79,1.74c0,1.51-0.05,3.02,0.02,4.53
			c0.04,1.01-0.42,1.37-1.33,1.38c-0.52,0.01-1.04,0.01-1.56,0.01c-6.71,0-13.41,0-20.12,0c-1.94,0-2.01,0.08-2.02,2.02
			c-0.01,3.18,0,6.36-0.01,9.54C58.75,72.05,58.8,72.71,58.26,73.19z"/>
		<path class="st38" d="M58.26,73.19c0.03-4.13,0.09-8.26,0.05-12.39c-0.01-1.07,0.24-1.4,1.37-1.4c7.62,0.05,15.25,0.01,22.87,0.05
			c0.88,0,1.17-0.19,1.13-1.11c-0.08-1.55-0.08-3.1,0-4.65c0.04-0.88-0.19-1.13-1.11-1.13c-7.26,0.04-14.53,0.02-21.79,0.02
			c-2.44,0-2.44,0-2.44-2.42c0-3.46-0.03-6.92,0.02-10.38c0.01-0.8-0.24-1-1.01-0.98c-1.63,0.05-3.27,0.06-4.91,0
			c-0.8-0.03-0.99,0.23-0.99,1c0.04,3.86-0.02,7.71,0.04,11.57c0.02,1.02-0.32,1.24-1.28,1.24c-7.58-0.04-15.17-0.02-22.75-0.02
			c-0.44,0-0.87,0.05-1.31,0.07c0-0.8,0-1.59,0-2.39c0.5-0.53,1.16-0.45,1.79-0.45c2.94-0.01,5.89,0,9.04-0.01
			c-2.63-1.61-5.14-3.07-7.62-4.57c-0.71-0.43-1.43-0.86-2.15-1.28c-0.46-0.27-0.82-0.62-1.06-1.09c0-0.48,0-0.95,0-1.43
			c0.68-0.25,1.14,0.23,1.63,0.52c3.7,2.21,7.4,4.4,11.09,6.62c2.18,1.31,2.18,1.31,4.93,1.24c-5.45-3.24-10.8-6.47-16.18-9.66
			c-0.59-0.35-1.17-0.69-1.47-1.35c-0.08-0.38,0.21-0.23,0.36-0.23c18.93-0.01,37.85,0,56.78-0.02c0.51,0,0.61,0.1,0.61,0.61
			c-0.02,11.21-0.01,22.43-0.02,33.64c0,0.14,0.15,0.44-0.23,0.36c-0.23-0.33-0.44-0.69-0.4-1.1c0.1-1.14-0.58-1.71-1.45-2.23
			c-3.91-2.31-7.83-4.62-11.69-7c-1.26-0.78-2.58-0.68-3.98-0.7c0.29,0.35,0.68,0.49,1.02,0.69c5.03,3.01,10.06,6.01,15.08,9.03
			c0.51,0.31,1.23,0.48,1.19,1.31c-2.24,0-4.47,0-6.71,0c-1.37-0.36-2.51-1.16-3.7-1.86c-3.62-2.16-7.23-4.32-10.85-6.48
			c-1.03-0.61-1.05-0.6-1.05,0.62c-0.01,2.02,0.01,4.04-0.01,6.06c0,0.59,0.06,1.2-0.44,1.67C59.85,73.19,59.06,73.19,58.26,73.19z"
			/>
		<path class="st38" d="M26.15,59.35c0.43,0.03,0.87,0.07,1.3,0.07c7.61,0,15.21,0.02,22.82-0.02c0.92,0,1.22,0.21,1.22,1.18
			c-0.03,4.2,0.03,8.4,0.05,12.6c-0.8,0-1.6,0-2.4,0c-0.51-0.46-0.44-1.08-0.44-1.67c-0.01-1.98,0.01-3.97-0.01-5.95
			c-0.01-1.18-0.1-1.23-1.11-0.63c-3.9,2.33-7.82,4.61-11.68,6.99c-0.89,0.55-1.82,0.95-2.81,1.27c-0.8,0-1.6,0-2.4,0
			c-0.06-0.75,0.61-0.86,1.05-1.12c5.05-3.05,10.12-6.05,15.18-9.09c0.34-0.2,0.7-0.38,1.11-0.73c-1.39-0.15-2.6-0.15-3.79,0.57
			c-5.28,3.21-10.6,6.35-15.9,9.52c-0.68,0.41-1.36,0.79-2.2,0.61c0-1.27,0-2.55,0-3.82c0.3-0.65,0.89-0.99,1.47-1.34
			c3.07-1.83,6.14-3.66,9.38-5.6c-3.14,0-6.1,0.01-9.06-0.01c-0.63,0-1.29,0.08-1.79-0.45C26.15,60.94,26.15,60.15,26.15,59.35z"/>
		<path class="st39" d="M60.65,73.19c0-3.18,0-6.35,0-9.53c0.46-0.09,0.71,0.22,1,0.39c4.72,2.81,9.44,5.62,14.14,8.45
			c0.32,0.19,0.76,0.26,0.91,0.69C71.35,73.19,66,73.19,60.65,73.19z"/>
		<path class="st39" d="M33.1,73.19c0.01-0.04,0.01-0.1,0.03-0.11c5.26-3.17,10.53-6.34,16.02-9.64c0,3.39,0,6.57,0,9.76
			C43.8,73.19,38.45,73.19,33.1,73.19z"/>
		<path class="st37" d="M26.15,72.95c0.5,0.09,0.82-0.26,1.18-0.48c5.34-3.18,10.73-6.28,15.97-9.61c1.89-1.2,3.76-1.16,5.89-0.81
			c-6.17,3.71-12.33,7.42-18.5,11.13c-1.36,0-2.73,0.01-4.09-0.01C26.46,73.18,26.11,73.41,26.15,72.95z"/>
		<path class="st39" d="M26.15,42.89c4.04,2.39,8.08,4.77,12.12,7.16c-0.01,0.08-0.02,0.16-0.02,0.24c-4.03,0-8.06,0-12.1,0
			C26.15,47.82,26.15,45.36,26.15,42.89z"/>
		<path class="st39" d="M26.15,61.74c4.02,0,8.03,0,12.05,0c0.03,0.08,0.06,0.15,0.09,0.23c-4.05,2.39-8.09,4.78-12.14,7.17
			C26.15,66.67,26.15,64.21,26.15,61.74z"/>
		<path class="st37" d="M83.41,73.19c-0.18-0.4-0.6-0.49-0.92-0.69c-5.55-3.33-11.11-6.65-16.67-9.97c-0.32-0.19-0.64-0.4-1.26-0.78
			c2.45,0.04,4.46-0.19,6.45,1.14c3.63,2.43,7.44,4.59,11.24,6.74c1.13,0.64,1.64,1.36,1.42,2.61c-0.05,0.31-0.01,0.63-0.01,0.95
			C83.57,73.19,83.49,73.19,83.41,73.19z"/>
		<path class="st37" d="M26.15,38.83c6.27,3.75,12.53,7.49,18.8,11.24c-2.16,0.18-4.15,0.38-6.15-0.94
			c-4.11-2.72-8.42-5.13-12.65-7.67C26.15,40.58,26.15,39.71,26.15,38.83z"/>
		<path class="st39" d="M49.15,48.57c-5.44-3.25-10.68-6.38-15.93-9.52c0.13-0.36,0.41-0.21,0.61-0.21
			c4.78-0.01,9.56,0.01,14.34-0.02c0.76-0.01,1.01,0.17,0.99,0.97C49.12,42.64,49.15,45.49,49.15,48.57z"/>
		<path class="st39" d="M60.65,48.58c0-3.18,0-6.12,0-9.05c0-0.36-0.06-0.7,0.51-0.7c5.13,0.01,10.25,0.01,15.44,0.22
			C71.35,42.18,66.09,45.33,60.65,48.58z"/>
		<path class="st37" d="M83.28,39.05c-2.45,1.46-4.9,2.92-7.34,4.38c-3.28,1.96-6.55,3.92-9.83,5.88c-1.74,1.04-3.2,1.26-5.42,0.81
			c0.07-0.49,0.54-0.55,0.84-0.73c5.63-3.38,11.27-6.72,16.89-10.12c0.67-0.4,1.32-0.46,2.04-0.45c0.91,0.01,1.83,0,2.74,0
			C83.23,38.91,83.26,38.98,83.28,39.05z"/>
		<path class="st39" d="M71.55,50.08c3.97-2.37,7.95-4.75,12.1-7.23c0,2.44,0,4.72,0,6.99c0,0.38-0.2,0.45-0.52,0.45
			c-3.85-0.01-7.69,0-11.54,0C71.58,50.22,71.56,50.15,71.55,50.08z"/>
		<path class="st39" d="M71.6,61.74c3.37,0,6.74,0,10.11,0c1.94,0,1.94,0,1.94,1.9c0,1.78,0,3.56,0,5.54
			c-4.12-2.46-8.11-4.85-12.11-7.23C71.56,61.88,71.58,61.81,71.6,61.74z"/>
	</g>
</g>
</svg>
